<svg width="24" height="24" viewBox="0 0 24 24" fill="none" xmlns="http://www.w3.org/2000/svg">
<path d="M23.8483 3.02875C23.7169 2.86455 23.518 2.76897 23.3077 2.76897H4.88212L4.36687 0.536319C4.29436 0.22221 4.01465 -0.000305176 3.69229 -0.000305176H0.692296C0.309984 -0.000305176 0 0.309679 0 0.692038C0 1.0744 0.309984 1.38433 0.692296 1.38433H3.14156L6.63899 16.54C6.71146 16.8541 6.99121 17.0766 7.31357 17.0766H21.1846C21.5669 17.0766 21.8769 16.7666 21.8769 16.3843C21.8769 16.002 21.5669 15.692 21.1846 15.692H7.86435L7.33185 13.3843H21.2308C21.5546 13.3843 21.8352 13.1599 21.9062 12.844L23.9831 3.61324C24.0293 3.40802 23.9797 3.193 23.8483 3.02875ZM20.6769 11.9997H7.01231L5.20167 4.15357H22.4423L20.6769 11.9997Z" fill="white"/>
<path d="M10.1537 17.9997C8.75402 17.9997 7.61523 19.1384 7.61523 20.5382C7.61523 21.938 8.75397 23.0767 10.1537 23.0767C11.5534 23.0767 12.6922 21.938 12.6922 20.5382C12.6922 19.1384 11.5534 17.9997 10.1537 17.9997ZM10.1537 21.6921C9.51747 21.6921 8.99987 21.1744 8.99987 20.5382C8.99987 19.902 9.51747 19.3844 10.1537 19.3844C10.7899 19.3844 11.3075 19.902 11.3075 20.5382C11.3075 21.1744 10.7899 21.6921 10.1537 21.6921Z" fill="white"/>
<path d="M18.4618 17.9997C17.0621 17.9997 15.9233 19.1384 15.9233 20.5382C15.9233 21.938 17.0621 23.0767 18.4618 23.0767C19.8615 23.0767 21.0003 21.938 21.0003 20.5382C21.0003 19.1384 19.8615 17.9997 18.4618 17.9997ZM18.4618 21.6921C17.8256 21.6921 17.308 21.1745 17.308 20.5382C17.308 19.902 17.8256 19.3844 18.4618 19.3844C19.098 19.3844 19.6156 19.902 19.6156 20.5382C19.6156 21.1745 19.098 21.6921 18.4618 21.6921Z" fill="white"/>
</svg>
