<svg width="32" height="22" viewBox="0 0 32 22" fill="none" xmlns="http://www.w3.org/2000/svg">
<path d="M31.9173 13.3483L30.2976 10.87C29.5823 9.77488 28.3671 9.12093 27.0461 9.12093H22.8571V6.71033C22.8571 5.23851 21.6602 4.04163 20.1884 4.04163H12.3465C11.9065 1.74351 9.88363 -6.10352e-05 7.45908 -6.10352e-05C4.71366 -6.10352e-05 2.48035 2.23354 2.48035 4.97867C2.48035 6.7048 3.3642 8.22749 4.70233 9.12093H0.508045C0.227283 9.12093 0 9.34821 0 9.62897C0 9.90974 0.227283 10.137 0.508045 10.137H5.58734V11.1528H3.55545C3.27497 11.1528 3.04769 11.3801 3.04769 11.6609C3.04769 11.9416 3.27497 12.1686 3.55545 12.1686H5.58734V13.1844H0.508045C0.227283 13.1844 0 13.4117 0 13.6925C0 13.9732 0.227283 14.2005 0.508045 14.2005H5.58734V16.4501C4.69186 16.8451 4.06349 17.7385 4.06349 18.7784V19.2798C4.06349 19.5606 4.29106 19.7879 4.57154 19.7879H9.07651C9.36541 21.0306 10.4797 21.9607 11.8094 21.9607C13.1394 21.9607 14.2535 21.0306 14.5424 19.7879H24.3147C24.6039 21.0306 25.7182 21.9607 27.0476 21.9607C28.377 21.9607 29.4916 21.0306 29.7805 19.7879H31.4921C31.7729 19.7879 31.9999 19.5606 31.9999 19.2798V13.6262C31.9999 13.5274 31.9711 13.4306 31.9173 13.3483ZM3.49615 4.97867C3.49615 2.79361 5.27402 1.01574 7.45908 1.01574C9.64443 1.01574 11.422 2.79361 11.422 4.97867C11.422 7.16373 9.64443 8.9416 7.45908 8.9416C5.27402 8.9416 3.49615 7.16373 3.49615 4.97867ZM6.60314 14.2005H7.61894C7.8997 14.2005 8.12698 13.9732 8.12698 13.6925C8.12698 13.4117 7.8997 13.1844 7.61894 13.1844H6.60314V12.1686H10.1589C10.4393 12.1686 10.6666 11.9416 10.6666 11.6609C10.6666 11.3801 10.4393 11.1528 10.1589 11.1528H6.60314V10.137H13.2063C13.4867 10.137 13.7143 9.90974 13.7143 9.62897C13.7143 9.34821 13.4867 9.12093 13.2063 9.12093H10.2158C11.5333 8.24115 12.4073 6.75073 12.434 5.05744H20.1887C21.0999 5.05744 21.8413 5.79916 21.8413 6.71033V16.2321H6.60953C6.6075 16.2321 6.60546 16.2327 6.60314 16.2327V14.2005ZM21.8413 18.7718H14.5886C14.5086 18.1876 14.2494 17.6609 13.8666 17.2479H21.8413V18.7718ZM6.60953 17.2479H9.75226C9.36977 17.6609 9.11023 18.1876 9.03059 18.7718H5.07929C5.08278 17.9312 5.76812 17.2479 6.60953 17.2479ZM11.8094 20.9449C10.8215 20.9449 10.0173 20.141 10.0173 19.1528C10.0173 18.1649 10.8215 17.3607 11.8094 17.3607C12.7976 17.3607 13.6015 18.1649 13.6015 19.1528C13.6015 20.141 12.7976 20.9449 11.8094 20.9449ZM27.0476 20.9449C26.0597 20.9449 25.2555 20.141 25.2555 19.1528C25.2555 18.1649 26.0597 17.3607 27.0476 17.3607C28.0358 17.3607 28.8397 18.1649 28.8397 19.1528C28.8397 20.141 28.0358 20.9449 27.0476 20.9449ZM30.9841 18.7718H29.8267C29.6399 17.4037 28.4662 16.3449 27.0476 16.3449C25.629 16.3449 24.4556 17.4037 24.2685 18.7718H22.8571V10.137H27.0461C28.0224 10.137 28.9202 10.6186 29.4474 11.4254L30.9841 13.7773V18.7718Z" fill="white"/>
</svg>
