<svg width="23" height="23" viewBox="0 0 23 23" fill="none" xmlns="http://www.w3.org/2000/svg">
<path d="M21.4628 16.5978L18.2688 13.4024C17.8398 12.9757 17.2654 12.7406 16.6516 12.7406C16.0129 12.7406 15.4098 12.9921 14.9538 13.4483L13.7105 14.6914C12.7443 14.1544 11.4603 13.4158 10.1271 12.0826C8.79546 10.7505 8.05678 9.47021 7.51704 8.49887L8.76154 7.25529C9.6868 6.32811 9.70573 4.84062 8.80387 3.93958L5.61047 0.746103C5.18272 0.317161 4.60833 0.0809326 3.99298 0.0809326C3.36849 0.0809326 2.77773 0.321367 2.32438 0.758994C2.05012 0.979864 0.673793 2.19483 0.160836 4.70047C-0.55736 8.20761 1.09277 11.582 5.85649 16.3476C11.178 21.6674 15.7209 22.0809 16.9865 22.0809C17.25 22.0809 17.409 22.0647 17.4514 22.0597C19.9332 21.7688 20.8218 20.6667 21.4706 19.8619C22.3113 18.8189 22.3083 17.4465 21.4628 16.5978ZM20.403 19.0012C19.7931 19.7576 19.2172 20.4719 17.2919 20.6977C17.2908 20.6978 17.1855 20.7095 16.9865 20.7095C15.8542 20.7095 11.7748 20.325 6.82618 15.3779C2.43317 10.9831 0.891282 7.96928 1.50425 4.97546C1.95166 2.78998 3.13948 1.86106 3.18565 1.82577L3.22661 1.79551L3.26253 1.75949C3.46082 1.56139 3.72018 1.45223 3.99289 1.45223C4.24119 1.45223 4.47083 1.5453 4.64014 1.71515L7.83427 4.90936C8.20177 5.2765 8.18221 5.89432 7.79121 6.28615L6.3838 7.69237L6.36067 7.71659C5.99389 8.12058 6.03704 8.66654 6.23908 9.02207C6.82206 10.0741 7.62062 11.515 9.15721 13.052C10.6887 14.5835 12.1274 15.3814 13.1766 15.9633C13.2816 16.0223 13.4985 16.1212 13.7699 16.1212C14.0904 16.1212 14.3847 15.9855 14.6025 15.7382L15.9234 14.4178C16.1206 14.2205 16.3791 14.1118 16.6515 14.1118C16.9003 14.1118 17.1311 14.2051 17.3001 14.3731L20.492 17.5664C20.8975 17.9733 20.7301 18.5955 20.403 19.0012Z" fill="white"/>
<path d="M13.3883 3.4406C14.5664 3.57617 15.9537 4.28979 16.9223 5.25857C17.9001 6.23631 18.6154 7.63759 18.7446 8.82852C18.7827 9.17985 19.0799 9.44021 19.4254 9.44021C19.4501 9.44021 19.4752 9.43884 19.5002 9.43619C19.8767 9.39532 20.1487 9.05707 20.1079 8.6806C19.9445 7.17519 19.0954 5.49242 17.892 4.28897C16.6999 3.09677 15.0343 2.24976 13.5451 2.07835C13.1691 2.03474 12.8289 2.30498 12.7856 2.68108C12.7422 3.05718 13.012 3.39726 13.3883 3.4406Z" fill="white"/>
<path d="M12.7475 6.31298C13.3847 6.38639 14.2665 6.85903 14.8442 7.43672C15.4268 8.01943 15.9004 8.90968 15.9701 9.55374C16.0083 9.90516 16.3054 10.1655 16.651 10.1655C16.6756 10.1655 16.7006 10.1641 16.7256 10.1615C17.1021 10.1206 17.3743 9.78238 17.3334 9.40591C17.2142 8.30631 16.4842 7.1375 15.8137 6.46702C15.1493 5.80249 13.9919 5.07597 12.9043 4.95064C12.5277 4.90685 12.188 5.17718 12.1447 5.55328C12.1014 5.92947 12.3713 6.26965 12.7475 6.31298Z" fill="white"/>
</svg>
