<svg width="50" height="50" viewBox="0 0 50 50" fill="none" xmlns="http://www.w3.org/2000/svg">
<path d="M33.6914 49.9997H11.7188C5.25703 49.9997 0 44.7427 0 38.281V11.7185C0 5.25678 5.25703 -0.000244141 11.7188 -0.000244141H38.2812C44.743 -0.000244141 50 5.25678 50 11.7185V29.0036C49.8969 31.595 46.196 31.5931 46.0938 29.0036V11.7185C46.0938 7.41068 42.5891 3.906 38.2812 3.906H11.7188C7.41094 3.906 3.90625 7.41068 3.90625 11.7185V38.281C3.90625 42.5888 7.41094 46.0934 11.7188 46.0934H33.6914C36.2828 46.1966 36.2809 49.8974 33.6914 49.9997ZM31.9336 10.7419C31.9336 9.66322 31.0592 8.78881 29.9805 8.78881H20.0195C17.4281 8.89193 17.4301 12.5928 20.0195 12.6951H29.9805C31.0592 12.6951 31.9336 11.8206 31.9336 10.7419ZM31.3477 42.8708C30.849 42.8708 30.3503 42.6811 29.9691 42.3013L26.7183 39.0624C25.6101 37.9577 25.0001 36.4889 25 34.9263C25 33.3637 25.6101 31.8948 26.7178 30.7904C26.7229 30.7853 29.9841 27.6052 29.9841 27.6052C30.7564 26.852 31.993 26.8678 32.746 27.64C33.499 28.4122 33.4835 29.6487 32.7112 30.4019L29.4696 33.5628C28.7211 34.2855 28.7238 35.5761 29.4757 36.2954L32.7262 39.5339C33.9614 40.7579 33.0636 42.8811 31.3477 42.8708ZM47.5287 47.4898C52.8413 42.1562 49.0062 32.8923 41.4551 32.9099H34.4727C31.8813 33.013 31.8832 36.7139 34.4727 36.8161H41.4551C44.0128 36.8161 46.0938 38.8971 46.0938 41.4548C46.0938 44.0125 44.0348 46.0934 41.5039 46.0934C38.9143 46.1954 38.9129 49.8971 41.5039 49.9997C43.7871 49.9997 45.9268 49.1083 47.5287 47.4898Z" fill="#63A60E"/>
</svg>
